inDegrees=no
num_controls=7
num_derivatives=13
num_iterations=83
num_multipliers=7
num_parameters=0
num_slacks=7
num_states=26
objective=0.517088
objective_accelerations=0.039914
objective_balance=0.002120
objective_effort=0.043913
objective_height=0.419514
objective_ligament=0.011628
solver_duration=1133.791606
status=Solve_Succeeded
success=true
DataType=double
version=3
OpenSimVersion=4.5
endheader
time	/jointset/ground_pelvis/pelvis_tilt/value	/jointset/ground_pelvis/pelvis_tx/value	/jointset/ground_pelvis/pelvis_ty/value	/jointset/hip_l/hip_flexion_l/value	/jointset/hip_l/hip_adduction_l/value	/jointset/hip_l/hip_rotation_l/value	/jointset/back/lumbar_extension/value	/jointset/patellofemoral_l/patellar_flexion_l/value	/jointset/knee_l/knee_flexion_l/value	/jointset/knee_l/knee_adduction_l/value	/jointset/knee_l/knee_rotation_l/value	/jointset/ankle_l/ankle_angle_l/value	/jointset/subtalar_l/subtalar_angle_l/value	/jointset/ground_pelvis/pelvis_tilt/speed	/jointset/ground_pelvis/pelvis_tx/speed	/jointset/ground_pelvis/pelvis_ty/speed	/jointset/hip_l/hip_flexion_l/speed	/jointset/hip_l/hip_adduction_l/speed	/jointset/hip_l/hip_rotation_l/speed	/jointset/back/lumbar_extension/speed	/jointset/patellofemoral_l/patellar_flexion_l/speed	/jointset/knee_l/knee_flexion_l/speed	/jointset/knee_l/knee_adduction_l/speed	/jointset/knee_l/knee_rotation_l/speed	/jointset/ankle_l/ankle_angle_l/speed	/jointset/subtalar_l/subtalar_angle_l/speed	/forceset/tau_hip_flexion_l	/forceset/tau_hip_adduction_l	/forceset/tau_hip_rotation_l	/forceset/tau_knee_flexion_l	/forceset/tau_ankle_angle_l	/forceset/tau_subtalar_angle_l	/forceset/tau_lumbar_extension	lambda_cid13_p0	lambda_cid13_p1	lambda_cid13_p2	lambda_cid13_p3	lambda_cid13_p4	lambda_cid13_p5	lambda_cid14_p0	/jointset/ground_pelvis/pelvis_tilt/accel	/jointset/ground_pelvis/pelvis_tx/accel	/jointset/ground_pelvis/pelvis_ty/accel	/jointset/hip_l/hip_flexion_l/accel	/jointset/hip_l/hip_adduction_l/accel	/jointset/hip_l/hip_rotation_l/accel	/jointset/back/lumbar_extension/accel	/jointset/patellofemoral_l/patellar_flexion_l/accel	/jointset/knee_l/knee_flexion_l/accel	/jointset/knee_l/knee_adduction_l/accel	/jointset/knee_l/knee_rotation_l/accel	/jointset/ankle_l/ankle_angle_l/accel	/jointset/subtalar_l/subtalar_angle_l/accel	gamma_cid13_p0	gamma_cid13_p1	gamma_cid13_p2	gamma_cid13_p3	gamma_cid13_p4	gamma_cid13_p5	gamma_cid14_p0
1	-0.158061738813978	-0.08572918781160173	0.7275554229555495	1.25124158291468	-0.3288209735121472	0.0009541345260946363	-0.9598959809509868	1.168658656427852	1.16865865642732	-0.0823565648528405	-0.1744013647471038	0.154779717359761	0.01520376550643268	0.1026287960321753	0.02555216453999302	0.06632148475372336	-0.2879728297272065	-0.0001344316167905473	-0.06384576769516413	-0.005317379477366745	-0.1660660634145553	-0.1660660634145552	-0.0001908387422906495	3.968619786597108e-05	0.01061286178770983	0.004741499272978846	-0.4007456430441992	0.04408437803720306	-0.005099897434265015	-0.2908179781200884	0.09630713309712648	0.02180181654018592	0.4374776610734488	-19.89080934069476	-5.162693414095507	-0.5714097841574129	6.277748013864194	-787.4339338686682	-48.97501419329733	-1.629314396340276	1.028771753471087	0.1755281737439293	1.254065751450626	-4.637877610257553	-0.009976977875921101	-1.41771027114588	0.3885978691192551	-4.163560204636293	-4.163560204636298	-0.1972546300889532	0.008478687924651999	-0.827201139206568	-0.2938690483188441	-1.086212794345292e-08	-1.072471051671451e-08	3.955057980861641e-08	6.612806466069889e-09	-2.366480137461914e-08	5.044633567238535e-08	-1.086959480393389e-08
1.01	-0.1569843938323265	-0.08546485951311798	0.7282811281966849	1.248130831354679	-0.328822237560055	0.0002445302916078896	-0.9599291523789862	1.16679020045479	1.16679020045463	-0.08236714661857436	-0.1743999811851586	0.1548445866491473	0.01523720183409252	0.1128471399717925	0.02731871062645206	0.07880939481248293	-0.3341699574938579	-0.000114768219663634	-0.07807808580834391	-0.001313713673566042	-0.2076181999866072	-0.207618199986607	-0.001923004593636081	0.0002269686327267847	0.002353534776783738	0.001947189619049505	-0.3998682023808054	0.04429410486349594	-0.005136017025016583	-0.2905510917866653	0.09620612145959685	0.02184205879453609	0.4370145538397111	-19.88934420131582	-5.187449372474198	-0.5594419657935907	6.175879291165247	-786.9911006056547	-48.99903779597158	-1.666841956838216	1.019405180437314	0.1780016937751865	1.244622829441662	-4.60950379342176	0.008478127743837327	-1.426456773672627	0.4067297932590949	-4.149997814236514	-4.149997814236511	-0.1608293657087128	0.02235622391767065	-0.826419063289051	-0.2720006974010367	-1.471755739368589e-08	-2.194956582764571e-08	5.039158359610715e-08	7.723388535926236e-09	-2.748437338177638e-08	5.470488976323139e-08	-1.440229687203374e-08
1.02	-0.1558046575180173	-0.08518270898023328	0.7291314063776786	1.24455833383031	-0.3288231969481428	-0.000607489962475824	-0.9599221913767663	1.164506431629856	1.164506431630066	-0.08239497640343878	-0.1743970241583077	0.1548266385521741	0.01524273731051898	0.1231070625605806	0.02911661142018384	0.09123607272538264	-0.3803220226026167	-7.349965305515564e-05	-0.09232897161226596	0.002709106420162281	-0.2491286337885334	-0.2491286337885333	-0.003640442567034379	0.0003543791736286711	-0.005950615484277224	-0.0008386709737189322	-0.3989907617174256	0.04450383168976943	-0.005172136615758705	-0.2902842054532435	0.09610510982206201	0.02188230104886156	0.4365514466059627	-19.89865711063788	-5.210550555280412	-0.5474724997192538	6.111808010462157	-786.6946616677089	-49.01582720376037	-1.713264171153326	1.037087483305101	0.1817991151985876	1.241819322278681	-4.628865078679039	-0.005655943979613454	-1.421423809294331	0.3924287271051027	-4.155219650611185	-4.155219650611189	-0.1943090544995459	-0.003495690867124389	-0.8361657892333857	-0.2921792360866125	-1.84328437861259e-08	-2.945695652620117e-08	6.264153462289465e-08	9.935416802521696e-09	-3.118475694542776e-08	5.96149490997397e-08	-1.754123153083015e-08
1.03	-0.1545227011721008	-0.08488227080755939	0.7301055402951833	1.24052518044398	-0.3288235788442102	-0.001601930601034628	-0.9598731996916263	1.161807973943493	1.161807973943724	-0.08243993311622728	-0.1743929869626879	0.1547256136374258	0.0152205920040339	0.1332321698734778	0.03099160705086159	0.1035701335582897	-0.426237463839647	6.009661705022852e-06	-0.1065480662236867	0.007263616273343163	-0.2905355510359731	-0.290535551035973	-0.005348265514467799	0.0004512794556184487	-0.01424282008174792	-0.003575790578773985	-0.3990639400850058	0.04487992520764226	-0.005217601080813615	-0.2895161084012736	0.09589088856226712	0.02202339175365354	0.4372658708634096	-19.95476551713226	-5.278127519442692	-0.5182797640274283	5.75254189278008	-786.8448549833371	-49.0360547720464	-1.768901936342413	0.9924149394523691	0.1934398228990107	1.22610588207054	-4.562207814949012	0.01608468075334653	-1.420507711031059	0.5131199656637002	-4.129320740433662	-4.129320740433672	-0.1586354215675256	0.01603300069739404	-0.8240179573335815	-0.2622910779888435	-2.214670014736394e-08	-3.692641391238543e-08	7.490586266232805e-08	1.215868431602266e-08	-3.488392430047194e-08	6.453165644895886e-08	-2.067614815483774e-08
